<?xml version="1.0" standalone="no"?><!DOCTYPE svg PUBLIC "-//W3C//DTD SVG 1.1//EN" "http://www.w3.org/Graphics/SVG/1.1/DTD/svg11.dtd"><svg t="1712406050842" class="icon" viewBox="0 0 1024 1024" version="1.1" xmlns="http://www.w3.org/2000/svg" p-id="10216" xmlns:xlink="http://www.w3.org/1999/xlink" width="32" height="32"><path d="M422.4 435.2c-12.8-12.8-32-12.8-44.8 0s-12.8 32 0 44.8l89.6 89.6c12.8 12.8 32 12.8 44.8 0 12.8-12.8 12.8-32 0-44.8l-89.6-89.6z m384-19.2L672 281.6c-108.8-108.8-275.2-128-396.8-44.8-25.6-25.6-25.6-64 0-89.6l25.6-25.6c12.8-12.8 12.8-32 0-44.8s-38.4-12.8-51.2-6.4L224 96c-51.2 51.2-51.2 128 0 179.2 0 0-6.4 0-6.4 6.4-128 128-128 326.4 0 454.4L352 870.4c128 128 326.4 128 454.4 0s121.6-332.8 0-454.4z m-44.8 403.2c-102.4 102.4-262.4 102.4-364.8 0L262.4 684.8C160 582.4 160 422.4 262.4 320c102.4-102.4 262.4-102.4 364.8 0l134.4 134.4c96 102.4 96 268.8 0 364.8z" p-id="10217"></path></svg>